<svg width="92" height="30" viewBox="0 0 92 30" fill="none" xmlns="http://www.w3.org/2000/svg">
<path d="M2.78737 23.4712C2.04617 23.4712 1.35479 22.997 1.10876 22.2464C1.07762 22.1521 1.05271 22.0611 1.02779 21.9637C-0.239728 17.1397 2.60986 12.1932 7.37785 10.9181C7.48062 10.8898 7.57094 10.8679 7.66748 10.8459C8.62357 10.6417 9.55786 11.2636 9.75718 12.2246C9.95649 13.1888 9.34298 14.131 8.39 14.332C8.35263 14.3414 8.31837 14.3508 8.28411 14.3602C5.40027 15.1297 3.67806 18.1227 4.44107 21.0309C4.45041 21.0686 4.45664 21.1 4.4691 21.1283C4.7743 22.0642 4.26978 23.0692 3.34483 23.377C3.16109 23.4367 2.97423 23.4681 2.79049 23.4681L2.78737 23.4712Z" fill="#3F1E1E"/>
<path d="M1.76596 11.7127C1.43584 11.7127 1.10261 11.6185 0.80364 11.4238C-0.0154213 10.8867 -0.24588 9.78435 0.286666 8.95836C0.345838 8.86729 0.405009 8.78249 0.47041 8.69455C1.89053 6.7662 3.974 5.50681 6.33775 5.15506C8.70151 4.80017 11.059 5.40003 12.9743 6.8353C13.0678 6.90753 13.1425 6.96092 13.2172 7.02374C13.9678 7.655 14.0674 8.77621 13.4415 9.5331C12.8155 10.2869 11.7037 10.3905 10.9531 9.75922C10.9282 9.73724 10.9033 9.7184 10.8753 9.69955C8.47416 7.90311 5.07958 8.40875 3.30131 10.8239C3.27951 10.8522 3.26082 10.8773 3.24525 10.9024C2.90579 11.4269 2.3421 11.7127 1.76284 11.7127H1.76596Z" fill="#3F1E1E"/>
<path d="M17.8737 10.7517C17.8737 10.7517 17.8457 10.7517 17.8301 10.7517C16.8553 10.7265 16.083 9.90997 16.1079 8.92695V8.83901C16.002 5.82087 13.5043 3.45597 10.5115 3.56275H10.4087C9.43081 3.65069 8.57749 2.93463 8.48718 1.95789C8.39686 0.978014 9.11315 0.1112 10.0848 0.0201215C10.1845 0.0106997 10.2748 0.00755902 10.3744 0.00441839C15.3137 -0.149472 19.4651 3.73549 19.6364 8.70396C19.6395 8.82331 19.6426 8.91753 19.6395 9.01803C19.6146 9.98534 18.8298 10.7548 17.8737 10.7548V10.7517Z" fill="#3F1E1E"/>
<path d="M21.0312 15.6762C20.4986 15.6762 19.9723 15.4343 19.6235 14.9727C19.0318 14.1906 19.1844 13.0726 19.9599 12.4759C19.9879 12.4539 20.0128 12.4319 20.0408 12.4099C21.1371 11.4646 21.8035 10.1424 21.9156 8.68826C22.0278 7.23415 21.5731 5.82401 20.6326 4.7185C20.6108 4.69338 20.589 4.66825 20.5672 4.64313C19.8882 3.93649 19.91 2.80586 20.6108 2.12434C21.3115 1.43969 22.4326 1.46167 23.1084 2.16831C23.1801 2.24369 23.2423 2.31592 23.3109 2.39444C24.8711 4.23171 25.6217 6.56205 25.4379 8.96464C25.2511 11.3672 24.1517 13.5531 22.3361 15.1171C22.2582 15.1862 22.1835 15.249 22.0994 15.3118C21.7786 15.5568 21.4049 15.6762 21.0312 15.6762Z" fill="#3F1E1E"/>
<path d="M20.7411 21.411C20.1836 21.411 19.6199 21.3576 19.05 21.2477C18.9348 21.2257 18.8444 21.2068 18.7448 21.1817C17.798 20.9399 17.2281 19.9694 17.471 19.0147C17.714 18.0631 18.6732 17.482 19.6199 17.7301C19.651 17.7364 19.6791 17.7427 19.7102 17.749C22.6501 18.3237 25.4872 16.3765 26.0509 13.4243C26.0572 13.3867 26.0634 13.3552 26.0696 13.3238C26.1973 12.3471 27.0849 11.6624 28.0534 11.7912C29.022 11.92 29.7009 12.8151 29.5732 13.7918C29.5608 13.8986 29.5421 13.9959 29.5203 14.1027C28.7012 18.4117 24.9422 21.4172 20.7442 21.4172L20.7411 21.411Z" fill="#3F1E1E"/>
<path d="M20.1716 27.3059C19.2778 27.3059 18.3808 27.1677 17.5057 26.8945C15.2261 26.1784 13.3575 24.6081 12.2488 22.4788C12.2021 22.3877 12.1553 22.2997 12.1117 22.2024C11.71 21.3073 12.1024 20.2489 12.99 19.8438C13.8776 19.4355 14.9271 19.8344 15.3288 20.7294C15.3444 20.7608 15.3569 20.7891 15.3724 20.8174C16.0451 22.1113 17.1756 23.0598 18.5552 23.4932C19.9349 23.9266 21.3986 23.7915 22.6786 23.1163L22.7658 23.0692C23.6035 22.5667 24.6904 22.8399 25.1887 23.6816C25.687 24.5233 25.4254 25.6131 24.5908 26.1188C24.5067 26.169 24.4288 26.213 24.3416 26.2569C23.0243 26.9542 21.601 27.3059 20.1684 27.3059H20.1716Z" fill="#3F1E1E"/>
<path d="M12.5383 29.9943C12.3359 29.9943 12.1272 29.9598 11.9248 29.8844C11.8283 29.8467 11.7379 29.809 11.6414 29.7682C9.45205 28.7977 7.77032 27.0264 6.90143 24.7809C6.03566 22.5353 6.08549 20.0856 7.0478 17.8809C7.09452 17.7773 7.13189 17.6893 7.17861 17.5982C7.62395 16.722 8.68904 16.3765 9.55482 16.8257C10.4237 17.2748 10.7663 18.3489 10.3241 19.222C10.3085 19.2502 10.2991 19.2785 10.2836 19.3099C9.70119 20.6478 9.67005 22.1302 10.1932 23.4869C10.7165 24.8468 11.7348 25.9178 13.0553 26.5019C13.0895 26.5176 13.1176 26.5302 13.1456 26.5428C14.0612 26.8851 14.5284 27.9089 14.1889 28.8323C13.9242 29.5515 13.2484 29.9975 12.5321 29.9975L12.5383 29.9943Z" fill="#3F1E1E"/>
<path d="M41.4147 13.9017H38.9326V10.4282H41.4147V9.61477C41.4147 6.32653 43.5262 4.35735 46.4755 4.35735C47.5935 4.35735 48.6181 4.6086 49.3313 4.98234L48.5247 7.8623C48.2132 7.64245 47.7803 7.48542 47.2509 7.48542C46.1329 7.48542 45.3886 8.23603 45.3886 9.61477V10.4282H48.4312V13.9017H45.3886V25.5472H41.4147V13.9017ZM50.6953 4.66513H54.638V25.544H50.6953V4.66513Z" fill="#3F1E1E"/>
<path d="M57.585 17.9688C57.585 13.6819 60.5653 10.0482 65.5015 10.0482C70.4377 10.0482 73.4492 13.6787 73.4492 17.9688C73.4492 22.2589 70.4688 25.9209 65.5015 25.9209C60.5342 25.9209 57.585 22.2903 57.585 17.9688ZM69.3508 17.9688C69.3508 15.6197 67.9525 13.5877 65.5015 13.5877C63.0506 13.5877 61.6834 15.6228 61.6834 17.9688C61.6834 20.3149 63.0506 22.3814 65.5015 22.3814C67.9525 22.3814 69.3508 20.3463 69.3508 17.9688Z" fill="#3F1E1E"/>
<path d="M76.3633 10.425H80.306V12.4916C81.3617 11.1442 83.2241 10.0796 85.0864 10.0796V13.9614C84.8062 13.8986 84.4356 13.8672 83.9995 13.8672C82.6947 13.8672 80.9569 14.5864 80.306 15.5568V25.544H76.3633V10.425Z" fill="#3F1E1E"/>
<path d="M87.1328 5.82402C87.1328 4.50809 88.2197 3.44342 89.4934 3.44342C90.7672 3.44342 91.8541 4.50809 91.8541 5.82402C91.8541 7.13994 90.7983 8.20462 89.4934 8.20462C88.1886 8.20462 87.1328 7.13994 87.1328 5.82402ZM87.5377 10.425H91.4804V25.544H87.5377V10.425Z" fill="#3F1E1E"/>
</svg>
