<svg width="30" height="28" viewBox="0 0 30 28" fill="none" xmlns="http://www.w3.org/2000/svg">
<path d="M2.78552 21.8459C2.04481 21.8459 1.35389 21.4045 1.10802 20.7059C1.0769 20.6182 1.052 20.5334 1.0271 20.4428C-0.239577 15.9528 2.60812 11.3489 7.37297 10.1621C7.47567 10.1358 7.56592 10.1153 7.6624 10.0948C8.61786 9.90483 9.55153 10.4836 9.75072 11.3781C9.9499 12.2755 9.33679 13.1525 8.38444 13.3395C8.3471 13.3483 8.31286 13.3571 8.27863 13.3658C5.39669 14.082 3.67562 16.8678 4.43812 19.5746C4.44746 19.6097 4.45368 19.6389 4.46613 19.6652C4.77113 20.5363 4.26695 21.4717 3.34261 21.7582C3.15899 21.8138 2.97226 21.843 2.78863 21.843L2.78552 21.8459Z" fill="#3F1E1E"/>
<path d="M1.76479 10.9016C1.43489 10.9016 1.10188 10.8139 0.803109 10.6327C-0.0154111 10.1328 -0.245717 9.10682 0.286476 8.33803C0.345609 8.25326 0.404742 8.17433 0.470099 8.09248C1.88928 6.29767 3.97137 5.12548 6.33356 4.79809C8.69575 4.46777 11.0517 5.0261 12.9657 6.36198C13.0591 6.42921 13.1338 6.4789 13.2085 6.53737C13.9586 7.12492 14.0581 8.16849 13.4326 8.87297C12.807 9.57452 11.696 9.67099 10.9459 9.08343C10.921 9.06297 10.8961 9.04543 10.8681 9.02789C8.46856 7.35585 5.07622 7.82648 3.29913 10.0744C3.27734 10.1007 3.25867 10.1241 3.24311 10.1475C2.90387 10.6356 2.34056 10.9016 1.76168 10.9016H1.76479Z" fill="#3F1E1E"/>
<path d="M17.8616 10.0071C17.8616 10.0071 17.8336 10.0071 17.818 10.0071C16.8439 9.98376 16.0721 9.22374 16.097 8.30879V8.22694C15.9912 5.41779 13.4951 3.21666 10.5043 3.31604H10.4016C9.42432 3.39789 8.57157 2.73141 8.48131 1.82231C8.39106 0.91029 9.10687 0.1035 10.0779 0.0187282C10.1775 0.00995874 10.2677 0.00703558 10.3673 0.00411243C15.3033 -0.139122 19.452 3.47682 19.6231 8.10124C19.6262 8.21233 19.6294 8.30002 19.6262 8.39356C19.6014 9.29389 18.8171 10.0101 17.8616 10.0101V10.0071Z" fill="#3F1E1E"/>
<path d="M21.0173 14.5906C20.4851 14.5906 19.9592 14.3656 19.6106 13.9359C19.0193 13.208 19.1718 12.1673 19.9467 11.6119C19.9747 11.5915 19.9996 11.571 20.0276 11.5506C21.1231 10.6707 21.7892 9.44005 21.9012 8.08663C22.0132 6.73321 21.5589 5.42071 20.619 4.39176C20.5972 4.36838 20.5754 4.34499 20.5536 4.32161C19.8751 3.6639 19.8969 2.61156 20.5972 1.97724C21.2974 1.33999 22.4178 1.36045 23.0932 2.01816C23.1648 2.08832 23.227 2.15555 23.2955 2.22863C24.8547 3.93867 25.6048 6.10765 25.4211 8.34386C25.2344 10.5801 24.1358 12.6146 22.3214 14.0703C22.2435 14.1346 22.1689 14.1931 22.0848 14.2516C21.7643 14.4796 21.3908 14.5906 21.0173 14.5906Z" fill="#3F1E1E"/>
<path d="M20.7274 19.9283C20.1703 19.9283 19.607 19.8786 19.0374 19.7763C18.9223 19.7559 18.832 19.7383 18.7324 19.7149C17.7863 19.4899 17.2168 18.5866 17.4595 17.698C17.7023 16.8122 18.6608 16.2715 19.607 16.5024C19.6381 16.5082 19.6661 16.5141 19.6972 16.5199C22.6352 17.0549 25.4704 15.2425 26.0337 12.4948C26.04 12.4597 26.0462 12.4304 26.0524 12.4012C26.18 11.4921 27.067 10.8549 28.0349 10.9747C29.0028 11.0946 29.6813 11.9277 29.5537 12.8368C29.5412 12.9361 29.5226 13.0268 29.5008 13.1262C28.6823 17.1367 24.9258 19.9342 20.7305 19.9342L20.7274 19.9283Z" fill="#3F1E1E"/>
<path d="M20.1578 25.4151C19.2646 25.4151 18.3683 25.2864 17.4937 25.0321C15.2156 24.3657 13.3482 22.9041 12.2403 20.9222C12.1936 20.8374 12.1469 20.7556 12.1033 20.6649C11.7019 19.8318 12.094 18.8467 12.981 18.4697C13.868 18.0896 14.9168 18.4609 15.3183 19.294C15.3339 19.3232 15.3463 19.3495 15.3619 19.3758C16.0341 20.5802 17.1638 21.463 18.5426 21.8664C19.9213 22.2698 21.384 22.1441 22.6632 21.5156L22.7503 21.4717C23.5875 21.004 24.6737 21.2583 25.1716 22.0418C25.6696 22.8252 25.4082 23.8395 24.5741 24.3101C24.4901 24.3569 24.4123 24.3978 24.3251 24.4387C23.0086 25.0877 21.5863 25.4151 20.1547 25.4151H20.1578Z" fill="#3F1E1E"/>
<path d="M12.5303 27.9173C12.328 27.9173 12.1195 27.8852 11.9172 27.815C11.8207 27.7799 11.7304 27.7448 11.634 27.7068C9.44605 26.8036 7.76544 25.1549 6.89712 23.0649C6.03192 20.9748 6.08171 18.6948 7.0434 16.6427C7.09008 16.5462 7.12743 16.4644 7.17411 16.3796C7.61916 15.5641 8.68355 15.2425 9.54875 15.6605C10.4171 16.0785 10.7594 17.0783 10.3175 17.8909C10.3019 17.9172 10.2926 17.9435 10.277 17.9727C9.69503 19.218 9.6639 20.5977 10.1868 21.8605C10.7096 23.1263 11.7273 24.1231 13.0469 24.6668C13.0811 24.6814 13.1092 24.6931 13.1372 24.7048C14.0522 25.0234 14.519 25.9763 14.1798 26.8357C13.9152 27.5051 13.2399 27.9202 12.5241 27.9202L12.5303 27.9173Z" fill="#3F1E1E"/>
</svg>
